<svg xmlns="http://www.w3.org/2000/svg" xmlns:xlink="http://www.w3.org/1999/xlink" width="1300" zoomAndPan="magnify" viewBox="0 0 974.88 299.999988" height="400" preserveAspectRatio="xMidYMid meet" version="1.0"><defs><g/><clipPath id="cbe3f3860b"><path d="M 0 0.0195312 L 974.761719 0.0195312 L 974.761719 299.980469 L 0 299.980469 Z M 0 0.0195312 " clip-rule="nonzero"/></clipPath><clipPath id="99881067ce"><path d="M 669 220 L 816 220 L 816 299.980469 L 669 299.980469 Z M 669 220 " clip-rule="nonzero"/></clipPath><clipPath id="6ec19830dc"><path d="M 669.410156 250.613281 L 786.019531 220.972656 L 815.65625 337.582031 L 699.050781 367.21875 Z M 669.410156 250.613281 " clip-rule="nonzero"/></clipPath><clipPath id="d7076b6256"><path d="M 669.410156 250.613281 L 786.019531 220.972656 L 815.65625 337.582031 L 699.050781 367.21875 Z M 669.410156 250.613281 " clip-rule="nonzero"/></clipPath><clipPath id="f243543541"><path d="M 183.785156 236.679688 L 330.015625 236.679688 L 330.015625 299.980469 L 183.785156 299.980469 Z M 183.785156 236.679688 " clip-rule="nonzero"/></clipPath><clipPath id="331feac715"><path d="M 413.859375 0.0195312 L 560.09375 0.0195312 L 560.09375 61.855469 L 413.859375 61.855469 Z M 413.859375 0.0195312 " clip-rule="nonzero"/></clipPath><clipPath id="288ecea187"><path d="M 911.445312 209.851562 L 974.761719 209.851562 L 974.761719 299.980469 L 911.445312 299.980469 Z M 911.445312 209.851562 " clip-rule="nonzero"/></clipPath><clipPath id="265ad0c588"><path d="M 751 0.0195312 L 883 0.0195312 L 883 104 L 751 104 Z M 751 0.0195312 " clip-rule="nonzero"/></clipPath><clipPath id="f720ba4fdb"><path d="M 792.511719 -56.335938 L 922.917969 -9.003906 L 882.238281 103.078125 L 751.828125 55.746094 Z M 792.511719 -56.335938 " clip-rule="nonzero"/></clipPath><clipPath id="53acfec379"><path d="M 792.671875 -56.785156 L 923.082031 -9.453125 L 882.144531 103.335938 L 751.738281 56 Z M 792.671875 -56.785156 " clip-rule="nonzero"/></clipPath><clipPath id="81848c5363"><path d="M 0 191 L 84 191 L 84 299.980469 L 0 299.980469 Z M 0 191 " clip-rule="nonzero"/></clipPath><clipPath id="2ad54bffe0"><path d="M -6.28125 167.890625 L 124.125 215.222656 L 83.445312 327.304688 L -46.964844 279.972656 Z M -6.28125 167.890625 " clip-rule="nonzero"/></clipPath><clipPath id="0c42366e88"><path d="M -6.121094 167.441406 L 124.289062 214.773438 L 83.351562 327.5625 L -47.058594 280.226562 Z M -6.121094 167.441406 " clip-rule="nonzero"/></clipPath><clipPath id="fafc72795e"><path d="M 132 0.0195312 L 282 0.0195312 L 282 112 L 132 112 Z M 132 0.0195312 " clip-rule="nonzero"/></clipPath><clipPath id="b5ca37224d"><path d="M 281.472656 -32.566406 L 180.09375 111.742188 L 131.890625 77.878906 L 233.269531 -66.429688 Z M 281.472656 -32.566406 " clip-rule="nonzero"/></clipPath><clipPath id="89b6e2e581"><path d="M 281.472656 -32.566406 L 180.136719 111.679688 L 132.054688 77.902344 L 233.390625 -66.34375 Z M 281.472656 -32.566406 " clip-rule="nonzero"/></clipPath></defs><g clip-path="url(#cbe3f3860b)"><path fill="#ffffff" d="M 0 0.0195312 L 974.878906 0.0195312 L 974.878906 307.480469 L 0 307.480469 Z M 0 0.0195312 " fill-opacity="1" fill-rule="nonzero"/><path fill="#ffffff" d="M 0 0.0195312 L 974.878906 0.0195312 L 974.878906 299.980469 L 0 299.980469 Z M 0 0.0195312 " fill-opacity="1" fill-rule="nonzero"/><path fill="#12254d" d="M 0 0.0195312 L 974.878906 0.0195312 L 974.878906 299.980469 L 0 299.980469 Z M 0 0.0195312 " fill-opacity="1" fill-rule="nonzero"/></g><g clip-path="url(#99881067ce)"><g clip-path="url(#6ec19830dc)"><g clip-path="url(#d7076b6256)"><path fill="#34b575" d="M 669.410156 250.613281 L 786.019531 220.972656 L 815.65625 337.582031 L 699.050781 367.21875 Z M 669.410156 250.613281 " fill-opacity="1" fill-rule="nonzero"/></g></g></g><g clip-path="url(#f243543541)"><path fill="#ec6433" d="M 330.015625 309.796875 C 330.015625 350.175781 297.28125 382.910156 256.898438 382.910156 C 216.519531 382.910156 183.785156 350.175781 183.785156 309.796875 C 183.785156 269.414062 216.519531 236.679688 256.898438 236.679688 C 297.28125 236.679688 330.015625 269.414062 330.015625 309.796875 Z M 330.015625 309.796875 " fill-opacity="1" fill-rule="nonzero"/></g><g clip-path="url(#331feac715)"><path fill="#34b575" d="M 560.09375 -11.261719 C 560.09375 29.117188 527.355469 61.855469 486.976562 61.855469 C 446.597656 61.855469 413.859375 29.117188 413.859375 -11.261719 C 413.859375 -51.640625 446.597656 -84.378906 486.976562 -84.378906 C 527.359375 -84.378906 560.09375 -51.640625 560.09375 -11.261719 Z M 560.09375 -11.261719 " fill-opacity="1" fill-rule="nonzero"/></g><g clip-path="url(#288ecea187)"><path fill="#ff2c47" d="M 1057.679688 282.96875 C 1057.679688 323.347656 1024.941406 356.082031 984.5625 356.082031 C 944.183594 356.082031 911.445312 323.347656 911.445312 282.96875 C 911.445312 242.585938 944.183594 209.851562 984.5625 209.851562 C 1024.945312 209.851562 1057.679688 242.585938 1057.679688 282.96875 Z M 1057.679688 282.96875 " fill-opacity="1" fill-rule="nonzero"/></g><g clip-path="url(#265ad0c588)"><g clip-path="url(#f720ba4fdb)"><g clip-path="url(#53acfec379)"><path fill="#ffde58" d="M 816.949219 79.652344 L 751.742188 55.984375 L 804.808594 11.441406 L 857.871094 -33.101562 L 870.011719 35.109375 L 882.152344 103.316406 Z M 816.949219 79.652344 " fill-opacity="1" fill-rule="nonzero"/></g></g></g><g clip-path="url(#81848c5363)"><g clip-path="url(#2ad54bffe0)"><g clip-path="url(#0c42366e88)"><path fill="#34b575" d="M 18.152344 303.878906 L -47.050781 280.210938 L 6.015625 235.667969 L 59.078125 191.125 L 71.21875 259.335938 L 83.359375 327.542969 Z M 18.152344 303.878906 " fill-opacity="1" fill-rule="nonzero"/></g></g></g><g clip-path="url(#fafc72795e)"><g clip-path="url(#b5ca37224d)"><g clip-path="url(#89b6e2e581)"><path fill="#ff2c47" d="M 281.472656 -32.566406 L 180.09375 111.742188 L 131.890625 77.878906 L 233.269531 -66.429688 Z M 281.472656 -32.566406 " fill-opacity="1" fill-rule="nonzero"/></g></g></g><g fill="#ffffff" fill-opacity="1"><g transform="translate(232.127379, 179.316984)"><g><path d="M 4 -55.078125 L 21.09375 -55.078125 C 26.257812 -55.078125 30.378906 -53.972656 33.453125 -51.765625 C 36.523438 -49.566406 38.0625 -46 38.0625 -41.0625 C 38.0625 -35.539062 35.765625 -31.601562 31.171875 -29.25 C 39.015625 -27.863281 42.9375 -23.234375 42.9375 -15.359375 C 42.9375 -10.722656 41.332031 -7.003906 38.125 -4.203125 C 34.914062 -1.398438 30.507812 0 24.90625 0 L 4 0 Z M 16.5625 -33.515625 L 17.5625 -33.515625 C 20.363281 -33.515625 22.453125 -34.003906 23.828125 -34.984375 C 25.210938 -35.960938 25.90625 -37.566406 25.90625 -39.796875 C 25.90625 -43.535156 23.125 -45.40625 17.5625 -45.40625 L 16.5625 -45.40625 Z M 16.5625 -9.6875 L 20.5 -9.6875 C 26.632812 -9.6875 29.703125 -11.734375 29.703125 -15.828125 C 29.703125 -18.273438 28.9375 -20.03125 27.40625 -21.09375 C 25.875 -22.164062 23.570312 -22.703125 20.5 -22.703125 L 16.5625 -22.703125 Z M 16.5625 -9.6875 "/></g></g></g><g fill="#ffffff" fill-opacity="1"><g transform="translate(276.589702, 179.316984)"><g><path d="M 4 0 L 4 -34.25 L 15.828125 -34.25 L 15.828125 -29.3125 L 15.953125 -29.3125 C 16.046875 -29.488281 16.191406 -29.707031 16.390625 -29.96875 C 16.585938 -30.238281 17.019531 -30.707031 17.6875 -31.375 C 18.351562 -32.039062 19.066406 -32.640625 19.828125 -33.171875 C 20.585938 -33.710938 21.566406 -34.191406 22.765625 -34.609375 C 23.960938 -35.035156 25.1875 -35.25 26.4375 -35.25 C 27.726562 -35.25 28.992188 -35.070312 30.234375 -34.71875 C 31.484375 -34.363281 32.398438 -34.007812 32.984375 -33.65625 L 33.921875 -33.109375 L 28.96875 -23.09375 C 27.5 -24.34375 25.453125 -24.96875 22.828125 -24.96875 C 21.410156 -24.96875 20.1875 -24.65625 19.15625 -24.03125 C 18.132812 -23.40625 17.410156 -22.648438 16.984375 -21.765625 C 16.566406 -20.878906 16.269531 -20.125 16.09375 -19.5 C 15.914062 -18.875 15.828125 -18.382812 15.828125 -18.03125 L 15.828125 0 Z M 4 0 "/></g></g></g><g fill="#ffffff" fill-opacity="1"><g transform="translate(309.836306, 179.316984)"><g><path d="M 38.65625 -15.484375 L 13.828125 -15.484375 C 13.828125 -13.085938 14.601562 -11.304688 16.15625 -10.140625 C 17.71875 -8.984375 19.410156 -8.40625 21.234375 -8.40625 C 23.148438 -8.40625 24.660156 -8.660156 25.765625 -9.171875 C 26.878906 -9.691406 28.148438 -10.707031 29.578125 -12.21875 L 38.125 -7.9375 C 34.5625 -1.976562 28.640625 1 20.359375 1 C 15.203125 1 10.773438 -0.765625 7.078125 -4.296875 C 3.378906 -7.835938 1.53125 -12.097656 1.53125 -17.078125 C 1.53125 -22.066406 3.378906 -26.34375 7.078125 -29.90625 C 10.773438 -33.46875 15.203125 -35.25 20.359375 -35.25 C 25.796875 -35.25 30.210938 -33.679688 33.609375 -30.546875 C 37.015625 -27.410156 38.71875 -22.925781 38.71875 -17.09375 C 38.71875 -16.289062 38.695312 -15.753906 38.65625 -15.484375 Z M 14.15625 -22.03125 L 27.171875 -22.03125 C 26.898438 -23.8125 26.195312 -25.179688 25.0625 -26.140625 C 23.9375 -27.097656 22.484375 -27.578125 20.703125 -27.578125 C 18.742188 -27.578125 17.179688 -27.0625 16.015625 -26.03125 C 14.859375 -25.007812 14.238281 -23.675781 14.15625 -22.03125 Z M 14.15625 -22.03125 "/></g></g></g><g fill="#ffffff" fill-opacity="1"><g transform="translate(350.092743, 179.316984)"><g><path d="M 22.234375 -25.578125 C 20.003906 -25.578125 18.085938 -24.75 16.484375 -23.09375 C 14.890625 -21.445312 14.09375 -19.46875 14.09375 -17.15625 C 14.09375 -14.800781 14.890625 -12.796875 16.484375 -11.140625 C 18.085938 -9.492188 20.003906 -8.671875 22.234375 -8.671875 C 23.296875 -8.671875 24.304688 -8.804688 25.265625 -9.078125 C 26.222656 -9.347656 26.925781 -9.613281 27.375 -9.875 L 27.96875 -10.28125 L 31.984375 -2.0625 C 31.671875 -1.84375 31.234375 -1.566406 30.671875 -1.234375 C 30.117188 -0.898438 28.851562 -0.445312 26.875 0.125 C 24.894531 0.707031 22.769531 1 20.5 1 C 15.46875 1 11.046875 -0.765625 7.234375 -4.296875 C 3.429688 -7.835938 1.53125 -12.082031 1.53125 -17.03125 C 1.53125 -22.007812 3.429688 -26.289062 7.234375 -29.875 C 11.046875 -33.457031 15.46875 -35.25 20.5 -35.25 C 22.769531 -35.25 24.859375 -34.984375 26.765625 -34.453125 C 28.679688 -33.921875 30.039062 -33.382812 30.84375 -32.84375 L 31.984375 -32.046875 L 27.96875 -23.96875 C 26.5 -25.039062 24.585938 -25.578125 22.234375 -25.578125 Z M 22.234375 -25.578125 "/></g></g></g><g fill="#ffffff" fill-opacity="1"><g transform="translate(382.872025, 179.316984)"><g><path d="M 4 0 L 4 -57.421875 L 15.828125 -57.421875 L 15.828125 -30.640625 L 15.953125 -30.640625 C 19.023438 -33.710938 22.296875 -35.25 25.765625 -35.25 C 27.460938 -35.25 29.144531 -35.023438 30.8125 -34.578125 C 32.476562 -34.140625 34.078125 -33.453125 35.609375 -32.515625 C 37.148438 -31.578125 38.398438 -30.25 39.359375 -28.53125 C 40.316406 -26.820312 40.796875 -24.832031 40.796875 -22.5625 L 40.796875 0 L 28.96875 0 L 28.96875 -19.359375 C 28.96875 -21.140625 28.398438 -22.695312 27.265625 -24.03125 C 26.140625 -25.363281 24.660156 -26.03125 22.828125 -26.03125 C 21.046875 -26.03125 19.429688 -25.34375 17.984375 -23.96875 C 16.546875 -22.59375 15.828125 -21.054688 15.828125 -19.359375 L 15.828125 0 Z M 4 0 "/></g></g></g><g fill="#ffffff" fill-opacity="1"><g transform="translate(427.000553, 179.316984)"><g><path d="M 15.484375 -44.328125 L 29.046875 -56.078125 L 35.125 -48.40625 L 19.234375 -39.1875 Z M 7.46875 -30.140625 C 3.507812 -26.734375 1.53125 -22.378906 1.53125 -17.078125 C 1.53125 -11.785156 3.429688 -7.445312 7.234375 -4.0625 C 11.046875 -0.6875 16.023438 1 22.171875 1 C 28.085938 1 32.96875 -0.703125 36.8125 -4.109375 C 40.664062 -7.515625 42.59375 -11.84375 42.59375 -17.09375 C 42.59375 -22.34375 40.625 -26.679688 36.6875 -30.109375 C 32.75 -33.535156 27.910156 -35.25 22.171875 -35.25 C 16.335938 -35.25 11.4375 -33.546875 7.46875 -30.140625 Z M 16.296875 -11.3125 C 14.828125 -12.800781 14.09375 -14.722656 14.09375 -17.078125 C 14.09375 -19.441406 14.859375 -21.378906 16.390625 -22.890625 C 17.921875 -24.410156 19.820312 -25.171875 22.09375 -25.171875 C 24.320312 -25.171875 26.203125 -24.410156 27.734375 -22.890625 C 29.273438 -21.378906 30.046875 -19.445312 30.046875 -17.09375 C 30.046875 -14.78125 29.300781 -12.863281 27.8125 -11.34375 C 26.320312 -9.832031 24.414062 -9.078125 22.09375 -9.078125 C 19.695312 -9.078125 17.765625 -9.820312 16.296875 -11.3125 Z M 16.296875 -11.3125 "/></g></g></g><g fill="#ffffff" fill-opacity="1"><g transform="translate(471.12908, 179.316984)"><g/></g></g><g fill="#ffffff" fill-opacity="1"><g transform="translate(489.354632, 179.316984)"><g><path d="M 6.34375 -4.234375 C 3.132812 -7.734375 1.53125 -12.019531 1.53125 -17.09375 C 1.53125 -22.164062 3.132812 -26.457031 6.34375 -29.96875 C 9.550781 -33.488281 13.625 -35.25 18.5625 -35.25 C 23.101562 -35.25 26.84375 -33.828125 29.78125 -30.984375 L 29.78125 -57.421875 L 41.59375 -57.421875 L 41.59375 0 L 29.90625 0 L 29.90625 -3.875 L 29.78125 -3.875 C 26.84375 -0.625 23.101562 1 18.5625 1 C 13.625 1 9.550781 -0.742188 6.34375 -4.234375 Z M 16.390625 -22.890625 C 14.859375 -21.378906 14.09375 -19.441406 14.09375 -17.078125 C 14.09375 -14.722656 14.828125 -12.800781 16.296875 -11.3125 C 17.765625 -9.820312 19.695312 -9.078125 22.09375 -9.078125 C 24.414062 -9.078125 26.320312 -9.832031 27.8125 -11.34375 C 29.300781 -12.863281 30.046875 -14.78125 30.046875 -17.09375 C 30.046875 -19.445312 29.273438 -21.378906 27.734375 -22.890625 C 26.203125 -24.410156 24.320312 -25.171875 22.09375 -25.171875 C 19.820312 -25.171875 17.921875 -24.410156 16.390625 -22.890625 Z M 16.390625 -22.890625 "/></g></g></g><g fill="#ffffff" fill-opacity="1"><g transform="translate(534.951882, 179.316984)"><g><path d="M 6.34375 -4.234375 C 3.132812 -7.734375 1.53125 -12.019531 1.53125 -17.09375 C 1.53125 -22.164062 3.132812 -26.457031 6.34375 -29.96875 C 9.550781 -33.488281 13.625 -35.25 18.5625 -35.25 C 23.101562 -35.25 26.84375 -33.828125 29.78125 -30.984375 L 29.78125 -34.25 L 41.59375 -34.25 L 41.59375 0 L 29.90625 0 L 29.90625 -3.875 L 29.78125 -3.875 C 26.84375 -0.625 23.101562 1 18.5625 1 C 13.625 1 9.550781 -0.742188 6.34375 -4.234375 Z M 16.390625 -22.890625 C 14.859375 -21.378906 14.09375 -19.441406 14.09375 -17.078125 C 14.09375 -14.722656 14.828125 -12.800781 16.296875 -11.3125 C 17.765625 -9.820312 19.695312 -9.078125 22.09375 -9.078125 C 24.414062 -9.078125 26.320312 -9.832031 27.8125 -11.34375 C 29.300781 -12.863281 30.046875 -14.78125 30.046875 -17.09375 C 30.046875 -19.445312 29.273438 -21.378906 27.734375 -22.890625 C 26.203125 -24.410156 24.320312 -25.171875 22.09375 -25.171875 C 19.820312 -25.171875 17.921875 -24.410156 16.390625 -22.890625 Z M 16.390625 -22.890625 "/></g></g></g><g fill="#ffffff" fill-opacity="1"><g transform="translate(580.549132, 179.316984)"><g/></g></g><g fill="#ffffff" fill-opacity="1"><g transform="translate(598.774669, 179.316984)"><g><path d="M 31.984375 -55.078125 L 54.21875 0 L 40.734375 0 L 36.65625 -11.015625 L 15.6875 -11.015625 L 11.625 0 L -1.875 0 L 20.359375 -55.078125 Z M 32.375 -22.03125 L 26.234375 -38.0625 L 26.109375 -38.0625 L 19.96875 -22.03125 Z M 32.375 -22.03125 "/></g></g></g><g fill="#ffffff" fill-opacity="1"><g transform="translate(651.114698, 179.316984)"><g><path d="M 4 0 L 4 -34.25 L 15.828125 -34.25 L 15.828125 -30.640625 L 15.953125 -30.640625 C 19.023438 -33.710938 22.296875 -35.25 25.765625 -35.25 C 27.460938 -35.25 29.144531 -35.023438 30.8125 -34.578125 C 32.476562 -34.140625 34.078125 -33.453125 35.609375 -32.515625 C 37.148438 -31.578125 38.398438 -30.25 39.359375 -28.53125 C 40.316406 -26.820312 40.796875 -24.832031 40.796875 -22.5625 L 40.796875 0 L 28.96875 0 L 28.96875 -19.359375 C 28.96875 -21.140625 28.398438 -22.695312 27.265625 -24.03125 C 26.140625 -25.363281 24.660156 -26.03125 22.828125 -26.03125 C 21.046875 -26.03125 19.429688 -25.34375 17.984375 -23.96875 C 16.546875 -22.59375 15.828125 -21.054688 15.828125 -19.359375 L 15.828125 0 Z M 4 0 "/></g></g></g><g fill="#ffffff" fill-opacity="1"><g transform="translate(695.243226, 179.316984)"><g><path d="M 6.34375 -4.234375 C 3.132812 -7.734375 1.53125 -12.019531 1.53125 -17.09375 C 1.53125 -22.164062 3.132812 -26.457031 6.34375 -29.96875 C 9.550781 -33.488281 13.625 -35.25 18.5625 -35.25 C 23.101562 -35.25 26.84375 -33.828125 29.78125 -30.984375 L 29.78125 -34.25 L 41.59375 -34.25 L 41.59375 0 L 29.90625 0 L 29.90625 -3.875 L 29.78125 -3.875 C 26.84375 -0.625 23.101562 1 18.5625 1 C 13.625 1 9.550781 -0.742188 6.34375 -4.234375 Z M 16.390625 -22.890625 C 14.859375 -21.378906 14.09375 -19.441406 14.09375 -17.078125 C 14.09375 -14.722656 14.828125 -12.800781 16.296875 -11.3125 C 17.765625 -9.820312 19.695312 -9.078125 22.09375 -9.078125 C 24.414062 -9.078125 26.320312 -9.832031 27.8125 -11.34375 C 29.300781 -12.863281 30.046875 -14.78125 30.046875 -17.09375 C 30.046875 -19.445312 29.273438 -21.378906 27.734375 -22.890625 C 26.203125 -24.410156 24.320312 -25.171875 22.09375 -25.171875 C 19.820312 -25.171875 17.921875 -24.410156 16.390625 -22.890625 Z M 16.390625 -22.890625 "/></g></g></g></svg>